<svg xmlns="http://www.w3.org/2000/svg" viewBox="0 -0.5 200 73" shape-rendering="crispEdges">
<metadata>Made with Pixels to Svg https://codepen.io/shshaw/pen/XbxvNj</metadata>
<path stroke="#ffffff" d="M0 0h200M0 1h183M195 1h5M0 2h176M195 2h5M0 3h103M104 3h72M195 3h5M0 4h26M34 4h24M72 4h30M122 4h53M195 4h5M0 5h26M41 5h15M73 5h29M122 5h52M195 5h5M0 6h26M45 6h10M73 6h29M122 6h14M138 6h36M195 6h5M0 7h26M45 7h9M74 7h28M121 7h9M140 7h33M195 7h5M0 8h26M45 8h8M74 8h28M119 8h5M141 8h32M195 8h5M0 9h26M45 9h8M75 9h27M119 9h2M142 9h30M195 9h5M0 10h26M45 10h7M76 10h26M119 10h1M143 10h29M196 10h4M0 11h26M45 11h7M76 11h26M119 11h2M143 11h28M196 11h4M0 12h26M45 12h6M77 12h25M119 12h2M144 12h27M196 12h4M0 13h25M45 13h6M78 13h24M119 13h2M145 13h25M196 13h4M0 14h25M44 14h6M78 14h24M119 14h2M146 14h23M196 14h4M0 15h25M44 15h6M79 15h23M119 15h2M147 15h22M196 15h4M0 16h25M44 16h5M79 16h23M120 16h1M148 16h21M196 16h4M0 17h25M44 17h5M80 17h22M120 17h1M148 17h20M196 17h4M0 18h25M44 18h4M81 18h21M120 18h2M149 18h18M196 18h4M0 19h25M44 19h4M81 19h21M120 19h2M150 19h17M196 19h4M0 20h25M44 20h4M82 20h20M120 20h2M151 20h16M196 20h4M0 21h24M44 21h3M82 21h20M121 21h1M152 21h14M196 21h4M0 22h24M43 22h4M83 22h19M121 22h1M152 22h14M196 22h4M0 23h24M43 23h3M84 23h18M121 23h2M153 23h12M196 23h4M0 24h24M43 24h3M84 24h18M121 24h2M154 24h11M196 24h4M0 25h24M43 25h3M85 25h17M121 25h2M155 25h9M196 25h4M0 26h24M43 26h2M86 26h16M121 26h2M155 26h9M196 26h4M0 27h24M43 27h2M63 27h3M86 27h16M121 27h2M156 27h7M178 27h2M197 27h3M0 28h24M42 28h3M63 28h3M87 28h15M121 28h2M157 28h6M177 28h3M197 28h3M0 29h23M42 29h2M63 29h4M88 29h14M121 29h2M158 29h5M177 29h3M197 29h3M0 30h23M42 30h2M62 30h5M88 30h13M121 30h3M158 30h4M176 30h4M197 30h3M0 31h23M42 31h2M62 31h6M89 31h12M121 31h3M159 31h2M176 31h4M197 31h3M0 32h23M42 32h1M62 32h6M89 32h12M121 32h3M141 32h2M176 32h4M197 32h3M0 33h23M41 33h2M61 33h8M90 33h11M121 33h3M141 33h3M175 33h5M197 33h3M0 34h23M41 34h2M61 34h9M90 34h11M121 34h3M141 34h4M175 34h5M197 34h3M0 35h22M41 35h1M61 35h9M91 35h10M121 35h3M141 35h5M174 35h6M197 35h3M0 36h22M40 36h2M60 36h11M92 36h9M121 36h4M141 36h5M174 36h6M197 36h3M0 37h22M40 37h2M60 37h11M92 37h9M121 37h4M142 37h5M174 37h6M197 37h3M0 38h22M40 38h2M60 38h12M93 38h8M121 38h4M142 38h6M173 38h7M197 38h3M0 39h22M40 39h1M60 39h13M94 39h7M121 39h4M142 39h6M173 39h7M197 39h3M0 40h22M39 40h2M59 40h14M94 40h7M121 40h4M142 40h7M173 40h7M198 40h2M0 41h21M39 41h2M59 41h15M95 41h6M121 41h4M143 41h6M172 41h8M198 41h2M0 42h21M39 42h2M59 42h15M95 42h6M121 42h4M143 42h7M172 42h8M198 42h2M0 43h21M39 43h1M59 43h3M69 43h6M96 43h5M121 43h5M143 43h8M171 43h9M198 43h2M0 44h21M38 44h2M70 44h5M97 44h4M120 44h6M143 44h9M171 44h9M198 44h2M0 45h20M38 45h2M70 45h6M97 45h4M120 45h6M143 45h9M171 45h9M198 45h2M0 46h20M38 46h2M70 46h7M98 46h3M120 46h6M144 46h9M170 46h10M198 46h2M0 47h20M37 47h2M70 47h7M99 47h2M120 47h6M144 47h10M170 47h10M198 47h2M0 48h20M37 48h2M70 48h8M99 48h2M120 48h7M144 48h10M170 48h10M198 48h2M0 49h19M37 49h2M70 49h8M99 49h2M120 49h7M144 49h11M169 49h11M198 49h2M0 50h18M37 50h2M70 50h9M99 50h2M120 50h7M145 50h11M169 50h11M198 50h2M0 51h17M37 51h1M70 51h9M99 51h2M120 51h7M145 51h11M168 51h12M198 51h2M0 52h16M36 52h2M70 52h10M99 52h2M120 52h7M145 52h12M165 52h15M198 52h2M0 53h13M36 53h2M70 53h11M99 53h2M120 53h7M145 53h35M198 53h2M0 54h4M36 54h2M70 54h11M99 54h2M120 54h7M145 54h35M198 54h2M0 55h4M36 55h1M70 55h12M99 55h2M120 55h8M146 55h34M198 55h2M0 56h3M35 56h2M70 56h12M99 56h2M120 56h8M146 56h34M198 56h2M0 57h3M35 57h2M70 57h13M99 57h2M120 57h8M146 57h34M199 57h1M0 58h3M35 58h2M70 58h13M99 58h2M120 58h8M146 58h34M199 58h1M0 59h2M34 59h3M67 59h17M99 59h2M120 59h8M147 59h33M199 59h1M0 60h2M33 60h3M54 60h30M99 60h2M120 60h8M147 60h33M199 60h1M0 61h2M33 61h3M53 61h32M98 61h3M120 61h9M147 61h33M199 61h1M0 62h1M31 62h5M53 62h33M95 62h6M120 62h9M147 62h33M199 62h1M0 63h1M31 63h5M53 63h33M93 63h7M120 63h9M147 63h33M199 63h1M0 64h1M29 64h7M53 64h34M91 64h9M120 64h9M148 64h33M184 64h16M0 65h3M28 65h8M52 65h48M120 65h9M148 65h52M0 66h5M25 66h11M52 66h53M119 66h11M148 66h52M0 67h8M23 67h17M52 67h78M148 67h52M0 68h45M52 68h78M147 68h53M0 69h130M141 69h59M0 70h130M136 70h64M0 71h200M0 72h200" />
<path stroke="#fffdfd" d="M183 1h1M77 13h1M149 41h1M84 60h1M183 64h1" />
<path stroke="#ffefef" d="M184 1h1" />
<path stroke="#ffdfdf" d="M185 1h1M154 25h1M143 32h1" />
<path stroke="#ffd0d0" d="M186 1h1M140 8h1M121 16h1M196 29h1M144 33h1M63 59h1M41 67h1" />
<path stroke="#ffc6c6" d="M187 1h7M177 2h18M176 3h19M60 4h12M175 4h20M56 5h16M175 5h20M55 6h18M174 6h21M55 7h19M131 7h8M174 7h21M54 8h20M126 8h14M173 8h22M53 9h22M121 9h20M172 9h23M53 10h22M121 10h21M172 10h23M52 11h24M121 11h22M171 11h24M51 12h26M121 12h23M171 12h24M51 13h26M121 13h24M170 13h26M51 14h27M121 14h25M170 14h26M50 15h29M121 15h26M169 15h27M50 16h29M122 16h25M169 16h27M49 17h31M122 17h26M168 17h28M49 18h31M122 18h27M168 18h28M48 19h33M122 19h28M167 19h29M48 20h33M122 20h29M167 20h29M47 21h35M122 21h29M166 21h30M47 22h36M123 22h29M166 22h30M47 23h36M123 23h30M165 23h31M46 24h38M123 24h31M165 24h31M46 25h39M123 25h31M165 25h31M46 26h39M123 26h32M164 26h32M45 27h18M66 27h20M123 27h33M164 27h14M180 27h16M45 28h18M66 28h20M123 28h34M163 28h14M180 28h16M45 29h17M67 29h20M124 29h33M163 29h13M180 29h16M44 30h18M68 30h20M124 30h34M162 30h14M180 30h17M44 31h18M68 31h20M124 31h17M143 31h16M162 31h14M180 31h17M44 32h18M69 32h20M124 32h17M144 32h16M161 32h14M180 32h17M43 33h18M70 33h20M124 33h17M145 33h30M180 33h17M43 34h18M70 34h20M125 34h16M145 34h29M180 34h17M43 35h17M71 35h20M125 35h16M146 35h28M180 35h17M42 36h18M71 36h20M125 36h16M147 36h27M180 36h17M42 37h18M72 37h20M125 37h16M147 37h27M180 37h17M42 38h18M72 38h21M125 38h17M148 38h25M180 38h17M42 39h17M73 39h20M125 39h17M149 39h24M180 39h17M41 40h18M73 40h21M125 40h17M149 40h23M180 40h17M41 41h18M74 41h21M126 41h16M150 41h22M180 41h17M41 42h17M75 42h20M126 42h17M151 42h20M180 42h17M41 43h18M67 43h2M75 43h21M126 43h17M151 43h20M180 43h17M40 44h29M76 44h21M126 44h17M152 44h19M180 44h18M40 45h29M76 45h21M126 45h17M153 45h17M180 45h18M40 46h29M77 46h21M126 46h17M153 46h17M180 46h18M40 47h29M77 47h21M127 47h17M154 47h16M180 47h18M39 48h30M78 48h21M127 48h17M155 48h14M180 48h18M39 49h31M79 49h20M127 49h17M155 49h14M180 49h18M39 50h31M79 50h20M127 50h17M156 50h13M180 50h18M39 51h31M80 51h19M127 51h18M157 51h11M180 51h18M38 52h32M80 52h19M127 52h18M157 52h7M180 52h18M38 53h32M81 53h18M127 53h18M180 53h18M38 54h32M81 54h18M128 54h17M180 54h18M38 55h32M82 55h17M128 55h17M180 55h18M37 56h33M83 56h16M128 56h18M180 56h18M37 57h33M83 57h16M128 57h18M180 57h18M37 58h33M84 58h15M128 58h18M180 58h18M37 59h26M84 59h15M129 59h17M180 59h18M37 60h16M85 60h14M129 60h18M180 60h18M36 61h17M85 61h12M129 61h18M180 61h19M36 62h17M86 62h9M129 62h18M180 62h19M36 63h17M86 63h7M129 63h18M180 63h18M36 64h16M87 64h3M129 64h18M36 65h16M130 65h18M37 66h15M130 66h18M42 67h10M130 67h17M46 68h5M130 68h16M130 69h10M130 70h5" />
<path stroke="#ffcdcd" d="M194 1h1M173 7h1M124 34h1M148 39h1" />
<path stroke="#ffcaca" d="M176 2h1M60 35h1M70 35h1M40 43h1" />
<path stroke="#fefbfc" d="M103 3h1" />
<path stroke="#fdf5f9" d="M26 4h1M120 21h1M42 27h1M30 63h1M105 66h1" />
<path stroke="#f0a8d0" d="M27 4h5M103 4h18M26 5h13M103 5h18M26 6h19M103 6h18M26 7h19M103 7h17M26 8h19M103 8h16M26 9h19M103 9h16M26 10h19M102 10h17M26 11h19M102 11h17M26 12h18M102 12h17M26 13h18M102 13h17M26 14h18M102 14h17M25 15h19M102 15h17M25 16h19M102 16h17M25 17h19M102 17h18M25 18h19M102 18h18M25 19h19M102 19h18M25 20h18M102 20h18M25 21h18M102 21h18M24 22h19M102 22h18M24 23h19M102 23h19M24 24h19M102 24h19M24 25h19M102 25h19M24 26h18M102 26h19M24 27h18M102 27h19M24 28h18M102 28h19M24 29h18M102 29h19M24 30h18M102 30h19M23 31h19M102 31h19M23 32h18M102 32h19M23 33h18M102 33h19M23 34h18M102 34h19M23 35h17M102 35h19M22 36h18M102 36h19M22 37h18M101 37h20M22 38h18M101 38h19M22 39h17M101 39h19M22 40h17M101 40h19M22 41h17M101 41h19M21 42h18M101 42h19M21 43h17M101 43h19M21 44h17M101 44h19M21 45h17M101 45h19M20 46h17M101 46h19M20 47h17M101 47h19M20 48h17M101 48h19M19 49h18M101 49h19M19 50h18M101 50h19M18 51h18M101 51h19M16 52h20M101 52h19M14 53h22M101 53h19M5 54h31M101 54h19M4 55h31M101 55h19M4 56h31M101 56h19M3 57h32M101 57h19M3 58h32M101 58h19M2 59h32M101 59h19M2 60h31M101 60h19M2 61h30M101 61h19M1 62h30M101 62h19M1 63h29M101 63h19M1 64h28M101 64h18M3 65h24M101 65h18M6 66h18M111 66h8M9 67h13" />
<path stroke="#f3bbd9" d="M32 4h1" />
<path stroke="#fceef5" d="M33 4h1" />
<path stroke="#ffebeb" d="M58 4h1" />
<path stroke="#ffcfcf" d="M59 4h1M139 7h1M170 45h1" />
<path stroke="#fdf7fa" d="M102 4h1" />
<path stroke="#fdf9fb" d="M121 4h1M27 65h1" />
<path stroke="#f0aed3" d="M39 5h1" />
<path stroke="#fae8f2" d="M40 5h1" />
<path stroke="#ffdddd" d="M72 5h1M163 27h1" />
<path stroke="#fbebf4" d="M102 5h1" />
<path stroke="#f2b5d6" d="M121 5h1" />
<path stroke="#ffd3d3" d="M174 5h1M69 47h1M90 64h1" />
<path stroke="#f9e0ed" d="M102 6h1M24 21h1" />
<path stroke="#f4c1dd" d="M121 6h1" />
<path stroke="#fff6f6" d="M136 6h1M147 67h1" />
<path stroke="#fffafa" d="M137 6h1M43 32h1M197 40h1M62 43h1M83 58h1M198 63h1M40 67h1" />
<path stroke="#ffc9c9" d="M54 7h1M44 29h1M174 34h1M91 36h1M197 43h1M53 60h1M52 64h1" />
<path stroke="#f6d1e5" d="M102 7h1" />
<path stroke="#fefefe" d="M120 7h1M13 53h1M8 67h1" />
<path stroke="#ffdada" d="M130 7h1M146 36h1M69 46h1M143 46h1M79 51h1M164 52h1M198 59h1" />
<path stroke="#fffefe" d="M53 8h1M167 18h1M87 29h1M161 31h1M59 39h1M169 48h1M36 66h1" />
<path stroke="#f4c5df" d="M102 8h1M22 35h1M21 41h1" />
<path stroke="#fff7f7" d="M124 8h1M169 14h1M66 59h1M146 59h1M97 61h1M45 68h1M51 68h1" />
<path stroke="#ffc7c7" d="M125 8h1M83 23h1M157 29h1M69 33h1M58 42h1M82 56h1M198 60h1" />
<path stroke="#f2b5d7" d="M102 9h1" />
<path stroke="#ffe2e2" d="M141 9h1M80 18h1M46 23h1M164 25h1" />
<path stroke="#fff3f3" d="M52 10h1" />
<path stroke="#fff2f2" d="M75 10h1M196 27h1" />
<path stroke="#fff5f5" d="M120 10h1M121 17h1M45 26h1M147 64h1M182 64h1" />
<path stroke="#fff4f4" d="M142 10h1M195 10h1M85 26h1" />
<path stroke="#ffe1e1" d="M195 11h1M150 42h1M129 65h1" />
<path stroke="#f3c0dc" d="M44 12h1M119 65h1" />
<path stroke="#ffd2d2" d="M195 12h1" />
<path stroke="#fefafc" d="M25 13h1M100 63h1" />
<path stroke="#fefcfd" d="M44 13h1M43 21h1M101 30h1M22 67h1" />
<path stroke="#f7d6e8" d="M25 14h1" />
<path stroke="#ffd5d5" d="M50 14h1M156 51h1" />
<path stroke="#ffcbcb" d="M49 16h1M66 43h1M37 55h1M128 59h1" />
<path stroke="#f6d0e5" d="M119 16h1M108 66h1" />
<path stroke="#fff8f8" d="M147 16h1M67 30h1M141 31h1M93 39h1M181 64h1" />
<path stroke="#ffd1d1" d="M48 18h1M152 45h1" />
<path stroke="#f6cde3" d="M43 20h1" />
<path stroke="#ffc8c8" d="M81 20h1M154 48h1" />
<path stroke="#ffe0e0" d="M151 21h1M140 69h1" />
<path stroke="#f1aed3" d="M120 22h1M23 30h1" />
<path stroke="#ffe6e6" d="M122 22h1" />
<path stroke="#f2b7d7" d="M42 26h1" />
<path stroke="#ffd4d4" d="M86 28h1M78 49h1" />
<path stroke="#ffe3e3" d="M196 28h1M64 43h1M69 45h1" />
<path stroke="#fae7f2" d="M23 29h1" />
<path stroke="#fffbfb" d="M62 29h1M124 35h1" />
<path stroke="#ffe7e7" d="M123 29h1M88 31h1M145 55h1" />
<path stroke="#ffdbdb" d="M176 29h1" />
<path stroke="#fbeef5" d="M101 31h1" />
<path stroke="#ffe4e4" d="M142 31h1M126 47h1" />
<path stroke="#f0abd1" d="M41 32h1M24 66h1" />
<path stroke="#fffcfc" d="M68 32h1M172 40h1M125 42h1M198 57h1" />
<path stroke="#f9e3ef" d="M101 32h1" />
<path stroke="#ffd6d6" d="M160 32h1" />
<path stroke="#ffeded" d="M175 32h1M36 60h1" />
<path stroke="#f7d4e7" d="M101 33h1" />
<path stroke="#f5c8e1" d="M101 34h1" />
<path stroke="#f2b9d9" d="M40 35h1" />
<path stroke="#ffecec" d="M42 35h1M197 41h1" />
<path stroke="#f2b9d8" d="M101 35h1" />
<path stroke="#f0acd2" d="M101 36h1" />
<path stroke="#ffe5e5" d="M71 37h1M127 54h1" />
<path stroke="#ffd8d8" d="M141 37h1M171 42h1" />
<path stroke="#f2b7d8" d="M120 38h1" />
<path stroke="#f0add2" d="M39 39h1" />
<path stroke="#fff1f1" d="M41 39h1" />
<path stroke="#f4c4de" d="M120 39h1" />
<path stroke="#f7d3e6" d="M120 40h1" />
<path stroke="#f9dfed" d="M120 41h1M107 66h1" />
<path stroke="#ffcece" d="M125 41h1M38 51h1M135 70h1" />
<path stroke="#ffdcdc" d="M142 41h1" />
<path stroke="#ffe9e9" d="M74 42h1M98 47h1M198 58h1M65 59h1" />
<path stroke="#fbedf5" d="M120 42h1" />
<path stroke="#ffd9d9" d="M197 42h1M65 43h1" />
<path stroke="#fae7f1" d="M38 43h1" />
<path stroke="#fff0f0" d="M63 43h1M75 44h1" />
<path stroke="#fdf8fb" d="M120 43h1" />
<path stroke="#ffeaea" d="M69 44h1M144 50h1" />
<path stroke="#f2b4d6" d="M20 45h1" />
<path stroke="#f5c7e0" d="M37 46h1" />
<path stroke="#ffdede" d="M39 47h1M64 59h1" />
<path stroke="#ffcccc" d="M69 48h1" />
<path stroke="#f2b6d7" d="M18 50h1" />
<path stroke="#f6d2e6" d="M17 51h1" />
<path stroke="#f8dceb" d="M36 51h1" />
<path stroke="#f7d8e9" d="M4 54h1M32 61h1" />
<path stroke="#f9e1ee" d="M35 55h1" />
<path stroke="#fae6f1" d="M3 56h1" />
<path stroke="#fff9f9" d="M128 60h1M146 68h1" />
<path stroke="#fbecf4" d="M100 64h1" />
<path stroke="#f1b4d6" d="M119 64h1M110 66h1" />
<path stroke="#fbedf4" d="M100 65h1" />
<path stroke="#fcf2f8" d="M5 66h1" />
<path stroke="#fbeaf3" d="M106 66h1" />
<path stroke="#f4c3de" d="M109 66h1" />
</svg>