<?xml version="1.0" encoding="UTF-8" standalone="no"?>
<!DOCTYPE svg PUBLIC "-//W3C//DTD SVG 1.1//EN" "http://www.w3.org/Graphics/SVG/1.1/DTD/svg11.dtd">
<svg width="100%" height="100%" viewBox="0 0 891 325" version="1.1" xmlns="http://www.w3.org/2000/svg" xmlns:xlink="http://www.w3.org/1999/xlink" xml:space="preserve" xmlns:serif="http://www.serif.com/" style="fill-rule:evenodd;clip-rule:evenodd;stroke-linejoin:round;stroke-miterlimit:2;">
    <g id="Artboard1" transform="matrix(0.347948,0,0,0.225692,0,0)">
        <rect x="0" y="0" width="2560" height="1440" style="fill:none;"/>
        <clipPath id="_clip1">
            <rect x="0" y="0" width="2560" height="1440"/>
        </clipPath>
        <g clip-path="url(#_clip1)">
            <g transform="matrix(2.86437,0.362316,-0.235011,4.41599,-827.967,-914.184)">
                <path d="M327.464,459.698C327.116,460.741 327.116,461.785 327.116,463.175C327.116,466.652 328.16,471.172 332.332,472.911C347.978,479.865 367.45,484.037 387.269,484.037C432.817,484.037 481.148,462.132 494.012,399.199C505.834,342.871 507.573,266.725 512.093,199.619L512.093,198.923C512.093,193.708 508.268,189.188 502.357,188.492C497.142,188.145 438.728,185.363 428.645,185.363C424.125,185.363 419.605,186.754 419.257,195.794C418.214,264.291 413.346,351.911 405.001,387.029C400.481,405.457 381.01,415.888 358.757,415.888C355.976,415.888 353.542,415.888 350.76,415.54L349.369,415.54C344.849,415.54 339.634,418.67 337.895,424.233L327.464,459.698Z" style="fill:rgb(240,168,208);fill-rule:nonzero;stroke:white;stroke-width:8.5px;"/>
            </g>
            <g transform="matrix(2.86037,-0.43092,0.279511,4.40982,-1141.12,-475.769)">
                <path d="M821.198,453.092C824.675,451.701 826.414,447.877 826.414,444.4C826.414,442.661 825.718,440.575 825.023,439.184L704.371,193.708C702.98,190.579 697.069,187.102 689.768,187.102L639.351,187.102C634.136,187.102 628.92,189.535 626.834,191.274C570.159,244.124 510.702,439.532 510.702,450.31C510.702,455.526 513.484,459.698 520.09,461.785L573.288,477.083C575.374,477.779 577.113,478.126 578.851,478.126C583.024,478.126 585.805,475.693 587.544,471.52C588.587,468.391 593.455,455.526 600.061,438.836L664.385,441.966L665.081,441.966C669.601,441.966 673.078,438.141 673.426,433.969L677.598,371.73L677.598,371.035C677.598,366.515 674.121,362.69 669.601,362.69L629.963,360.604C651.868,305.32 655.693,295.584 658.475,295.584C659.518,295.584 660.561,296.627 661.604,299.061L738.793,472.216C739.836,474.649 744.009,477.779 749.572,477.779C751.31,477.779 753.397,477.431 755.135,476.736L821.198,453.092Z" style="fill:rgb(255,198,198);fill-rule:nonzero;stroke:white;stroke-width:8.5px;"/>
            </g>
            <g transform="matrix(2.87232,0.151298,-0.0981375,4.42824,-1151.85,-906.825)">
                <path d="M945.675,474.997C950.195,474.997 954.02,471.172 954.02,466.652L954.02,195.099C954.02,190.579 950.195,186.754 945.675,186.754L868.833,186.754C864.313,186.754 860.488,190.579 860.488,195.099L860.488,466.652C860.488,471.172 864.313,474.997 868.833,474.997L945.675,474.997Z" style="fill:rgb(240,168,208);fill-rule:nonzero;stroke:white;stroke-width:8.5px;"/>
            </g>
            <g transform="matrix(2.85661,-0.486607,0.315631,4.40402,-1398.96,-179.851)">
                <path d="M1323.62,477.779C1328.84,477.779 1332.66,472.563 1333.01,467.695L1344.83,198.228L1344.83,197.533C1344.83,193.708 1342.75,188.84 1336.14,188.492L1266.95,185.015L1266.25,185.015C1261.39,185.015 1255.82,187.797 1254.43,189.535C1237.39,209.702 1204.71,260.814 1176.2,309.84C1175.5,310.883 1175.16,311.578 1174.46,311.578C1173.77,311.578 1173.42,311.23 1172.72,310.187C1144.21,261.162 1111.53,209.702 1094.49,189.535C1093.1,187.797 1086.15,185.015 1081.28,185.015L1080.58,185.015L1012.09,188.84C1005.48,189.535 1003.39,194.751 1003.39,198.576L1016.95,467.695C1016.95,472.563 1020.78,477.779 1026.34,477.779L1026.69,477.779L1093.45,472.216C1101.1,471.52 1105.96,464.218 1105.96,460.394L1105.96,460.046L1090.32,312.274L1090.32,309.84C1090.32,307.753 1090.67,306.363 1091.36,306.363C1092.4,306.363 1093.45,307.406 1094.84,309.144C1101.44,318.184 1126.83,370.339 1144.21,402.328C1146.3,406.5 1149.78,411.716 1156.03,411.716L1191.85,410.325C1199.5,409.977 1203.32,405.109 1204.71,402.328C1221.75,370.339 1247.13,316.098 1253.39,307.406C1254.78,305.667 1255.82,304.624 1256.52,304.624C1257.56,304.624 1257.91,306.015 1257.91,308.449L1257.91,310.187L1241.57,460.394L1241.57,460.741C1241.57,464.566 1245.04,472.216 1252.69,472.563L1323.28,477.779L1323.62,477.779Z" style="fill:rgb(255,198,198);fill-rule:nonzero;stroke:white;stroke-width:8.5px;"/>
            </g>
        </g>
    </g>
</svg>
